<svg xmlns:xlink="http://www.w3.org/1999/xlink" xmlns="http://www.w3.org/2000/svg" width="72" height="72" viewBox="0 0 72 72" fill="none">
<g clip-path="url(#clip0_260_2207)">
<path d="M7.42871 11.2858H65.8573V71.0001H7.42871V11.2858Z" fill="white" stroke="#101010" stroke-width="2"/>
<path d="M16.7144 32.1428C16.7144 30.0125 18.4413 28.2856 20.5715 28.2856H30.8572C32.9875 28.2856 34.7144 30.0125 34.7144 32.1428V38.5714H16.7144V32.1428Z" fill="#FF6600" stroke="#101010" stroke-width="2"/>
<path d="M21.8569 23.1428C21.8569 21.0125 23.5838 19.2856 25.7141 19.2856C27.8443 19.2856 29.5712 21.0125 29.5712 23.1428V25.7142C29.5712 27.8445 27.8443 29.5714 25.7141 29.5714C23.5838 29.5714 21.8569 27.8445 21.8569 25.7142V23.1428Z" fill="white" stroke="#101010" stroke-width="2"/>
<path d="M42.4287 28.1428L57.8573 28.1428" stroke="black" stroke-width="2"/>
<path d="M42.4287 34.1428L53.5 34.1428" stroke="black" stroke-width="2"/>
<path d="M42.4287 24.1428L49.5 24.1428" stroke="black" stroke-width="2"/>
<path d="M16.7144 58.1428C16.7144 56.0125 18.4413 54.2856 20.5715 54.2856H30.8572C32.9875 54.2856 34.7144 56.0125 34.7144 58.1428V64.5714H16.7144V58.1428Z" fill="#FF6600" stroke="#101010" stroke-width="2"/>
<path d="M21.8569 49.1428C21.8569 47.0125 23.5838 45.2856 25.7141 45.2856C27.8443 45.2856 29.5712 47.0125 29.5712 49.1428V51.7142C29.5712 53.8445 27.8443 55.5714 25.7141 55.5714C23.5838 55.5714 21.8569 53.8445 21.8569 51.7142V49.1428Z" fill="white" stroke="#101010" stroke-width="2"/>
<path d="M42.4287 54.1428L48 54.1428" stroke="black" stroke-width="2"/>
<path d="M42.4287 60.1428L54.5 60.1428" stroke="black" stroke-width="2"/>
<path d="M42.4287 50.1428L57.5 50.1428" stroke="black" stroke-width="2"/>
<path d="M7.42871 5.14286C7.42871 2.85482 9.28353 1 11.5716 1H61.7144C64.0025 1 65.8573 2.85482 65.8573 5.14286V14.4286H7.42871V5.14286Z" fill="#005EFF" stroke="#101010" stroke-width="2"/>
<path d="M0 71H72" stroke="black" stroke-width="2"/>
<circle cx="14.1426" cy="7.71443" r="1.28571" fill="#101010"/>
<circle cx="19.2857" cy="7.71443" r="1.28571" fill="#101010"/>
<circle cx="24.4283" cy="7.71443" r="1.28571" fill="#101010"/>
</g>
<defs>
<clipPath id="clip0_260_2207">
<rect width="72" height="72" fill="white"/>
</clipPath>
</defs>
</svg>