<svg width="52" height="37" viewBox="0 0 52 37" fill="none" xmlns="http://www.w3.org/2000/svg">
<g clip-path="url(#clip0_195_2)">
<path d="M10.2334 37C6.66362 37 4.04577 36.1778 2.37986 34.5333C0.793288 32.8067 0 30.6689 0 28.12V25.53C0 23.1456 0.317315 20.7611 0.951945 18.3767C1.6659 15.91 2.57818 13.5667 3.68879 11.3467C4.87872 9.12667 6.26697 7.07111 7.85355 5.18C9.44012 3.20666 11.1457 1.48 12.9703 0H24.0366C21.4188 2.46666 19.1579 4.97444 17.254 7.52333C15.4294 10.0722 14.0412 12.9089 13.0892 16.0333C15.6278 16.5267 17.492 17.6367 18.6819 19.3633C19.8719 21.0078 20.4668 22.8989 20.4668 25.0367V28.12C20.4668 30.6689 19.6339 32.8067 17.968 34.5333C16.3814 36.1778 13.8032 37 10.2334 37ZM38.1968 37C34.627 37 32.0092 36.1778 30.3432 34.5333C28.7567 32.8067 27.9634 30.6689 27.9634 28.12V25.53C27.9634 23.1456 28.2807 20.7611 28.9153 18.3767C29.6293 15.91 30.5416 13.5667 31.6522 11.3467C32.8421 9.12667 34.2304 7.07111 35.8169 5.18C37.4035 3.20666 39.1091 1.48 40.9336 0H52C49.3822 2.46666 47.1213 4.97444 45.2174 7.52333C43.3928 10.0722 42.0046 12.9089 41.0526 16.0333C43.5912 16.5267 45.4554 17.6367 46.6453 19.3633C47.8352 21.0078 48.4302 22.8989 48.4302 25.0367V28.12C48.4302 30.6689 47.5973 32.8067 45.9314 34.5333C44.3448 36.1778 41.7666 37 38.1968 37Z" fill="#0F0F0F"/>
</g>
<defs>
<clipPath id="clip0_195_2">
<rect width="52" height="37" fill="white"/>
</clipPath>
</defs>
</svg>
